<svg width="100" height="100" viewBox="0 0 100 100" fill="none" xmlns="http://www.w3.org/2000/svg">
<g clip-path="url(#clip0_503_1133)">
<path d="M50 100C77.6142 100 100 77.6142 100 50C100 22.3858 77.6142 0 50 0C22.3858 0 0 22.3858 0 50C0 77.6142 22.3858 100 50 100Z" fill="#D1629B"/>
<mask id="mask0_503_1133" style="mask-type:luminance" maskUnits="userSpaceOnUse" x="0" y="0" width="100" height="100">
<path d="M50 100C77.6142 100 100 77.6142 100 50C100 22.3858 77.6142 0 50 0C22.3858 0 0 22.3858 0 50C0 77.6142 22.3858 100 50 100Z" fill="white"/>
</mask>
<g mask="url(#mask0_503_1133)">
<path d="M62.9769 53.1187C54.4386 68.1276 48.1997 75.0973 44.2603 74.01C40.9627 72.9405 35.9181 66.4342 41.337 57.0938C37.5937 59.2863 35.5794 60.4806 35.3299 60.6945C36.8272 63.5644 37.2194 69.8389 33.993 74.6517C30.7488 79.4645 24.7238 82.3879 18.8949 80.7658C17.0054 80.231 14.1534 76.3451 16.6133 70.8906C18.7702 66.0777 27.4689 61.5501 29.7327 60.4271L30.3566 60.0706C25.8112 56.0955 14.403 50.7123 12.8165 42.4592C12.3709 40.1241 13.4582 34.5626 20.3031 28.1633C26.0251 22.8157 34.0464 18.6624 41.4261 16.0421C53.8504 11.6214 66.952 14.2417 68.9484 22.1383C70.9092 29.928 64.1712 39.215 55.5259 42.5661C47.8076 45.543 41.4439 45.0617 38.8058 44.2239C35.8468 43.2613 34.0821 41.2827 33.6543 40.1775C33.4939 39.7497 33.2087 39.0011 33.6543 38.7515C33.9395 38.5911 34.0464 38.6446 34.8129 39.4645C35.5259 40.2488 38.378 42.3522 43.8325 41.7462C58.0928 40.1419 66.7024 29.0546 63.9751 23.0831C62.0678 18.9119 51.0874 17.0225 37.2907 23.8317C20.517 32.1918 19.6079 39.0724 19.4653 41.6927C19.0732 48.8941 28.3423 52.6909 33.3691 58.0385L33.5473 58.2524C34.1534 57.9316 38.3423 55.4717 46.0964 50.8727C47.7719 49.5002 49.0732 49.5893 50.0179 51.1401C51.1231 49.928 51.64 49.0011 51.5865 48.3594C51.4796 47.4146 53.8325 49.6784 53.583 53.707C53.3334 57.7355 51.6579 56.4877 51.7648 60.5697C48.9128 60.0706 47.6472 58.3237 47.968 55.2934C42.5491 63.7783 41.9074 68.9476 46.0072 70.8371C47.6115 71.4075 50.4279 68.3059 54.5099 61.5323C54.9019 60.8513 55.3 60.174 55.7042 59.5002C58.3423 55.0973 62.2817 48.8763 62.5491 48.092C62.9234 47.0225 63.1195 45.9173 63.2978 45.436C63.476 44.9547 65.0447 44.5982 66.845 44.616C68.6454 44.616 68.8236 45.4004 68.8415 45.5608C68.8593 45.739 67.968 47.8781 67.7719 49.3932C67.5937 50.8906 67.7719 51.657 67.9502 52.9226C68.0571 53.7604 68.5741 54.8121 69.198 56.0064C71.0696 52.9405 74.3673 47.0938 74.6882 45.4538C74.8748 44.5461 75.125 43.6527 75.4368 42.78C75.6151 42.2988 77.1659 41.9423 78.9841 41.9601C80.7666 41.9601 80.9448 42.7444 80.9805 42.9048C80.9805 43.0831 80.107 45.2221 79.911 46.7373C79.7149 48.2346 79.911 49.0011 80.0892 50.2667C80.214 51.354 81.0518 52.8335 81.8896 54.4913C84.1712 53.3683 86.8807 52.6196 90.0179 52.6018C98.1463 52.5483 102.727 57.8068 102.496 62.6374C102.335 66.3986 98.8771 67.9494 98.2354 68.0563C97.7719 68.1276 97.5224 68.1455 97.4511 67.7889C97.3976 67.5394 97.5759 67.4324 98.1284 67.0759C98.6632 66.7194 100.303 65.6143 100.606 63.5644C100.891 61.5144 99.3584 56.6481 91.5509 55.7212C88.6122 55.3021 85.6151 55.6522 82.8521 56.7373C83.2621 57.8068 83.5652 58.8941 83.6008 60.0171C83.6899 62.4592 81.9965 64.2595 80.2497 65.543C79.2158 66.3095 78.1463 66.8086 77.2194 67.1116C76.5063 67.4146 75.5081 67.7533 74.8308 67.6107C73.2978 67.2898 72.5135 65.9529 73.5295 62.9761C74.0999 61.3718 75.7042 58.8941 78.3245 56.7729C77.7363 55.5608 77.0589 54.313 76.7202 53.1722C76.3565 51.9859 76.0707 50.7772 75.8646 49.5537C75.8646 49.5537 73.7256 54.01 70.9448 58.0385L70.4636 58.7337C70.9983 59.9815 71.4439 61.3362 71.4974 62.6909C71.559 63.7766 71.3405 64.86 70.8629 65.837C70.3853 66.814 69.6647 67.6519 68.7701 68.2702C67.9032 68.9044 66.9484 69.4088 65.9359 69.7676C64.8866 70.2009 63.7718 70.454 62.6382 70.5162C61.7826 70.5697 60.927 70.5162 60.4457 70.1597C59.7862 69.6606 59.7149 69.0546 60.0536 68.2168C60.3566 67.5037 62.4778 65.0795 64.2603 62.9405C64.7773 62.3522 65.2407 61.7462 65.6507 61.1579L66.5063 60.0349C65.8468 58.6089 65.0268 57.1651 64.6347 55.8282C63.9573 53.5644 63.7612 52.2096 63.7612 52.2096L62.9769 53.1187ZM29.8218 72.9048C31.2046 71.4745 32.1812 69.7016 32.6512 67.7685C33.1211 65.8354 33.0674 63.812 32.4956 61.9066L32.1035 62.1562L31.9252 62.2631L30.321 63.2257C28.1534 64.5501 26.1127 66.0717 24.2247 67.7711C21.0518 70.748 20.3923 74.9013 22.0678 75.8816C23.6186 76.7729 27.2372 75.7034 29.8218 72.9048ZM64.2247 67.5216C65.312 66.8264 67.7363 65.1508 67.7363 62.6374V62.4235C67.2015 63.1544 66.6668 63.8139 66.2211 64.3843C65.3348 65.4147 64.4255 66.4251 63.4939 67.4146C63.4939 67.4146 63.2265 67.682 63.3334 67.7533C63.5117 67.8424 63.8682 67.7176 64.2247 67.5216ZM76.239 64.7765C77.5937 64.2952 79.8575 63.1009 79.8753 59.9458C79.8712 59.4294 79.7809 58.9173 79.6079 58.4307C78.4948 59.3863 77.5854 60.5563 76.9341 61.8709C76.0072 63.9209 75.9538 64.5804 76.2211 64.7765H76.239Z" fill="white"/>
</g>
</g>
<defs>
<clipPath id="clip0_503_1133">
<rect width="100" height="100" fill="white"/>
</clipPath>
</defs>
</svg>
