<svg width="100" height="100" viewBox="0 0 100 100" fill="none" xmlns="http://www.w3.org/2000/svg">
<g clip-path="url(#clip0_503_1140)">
<path d="M76.2398 7.42969C90.4985 16.2374 100 32.0087 100 49.9993C100 77.6135 77.6142 99.9993 50 99.9993C43.9781 99.9993 38.2049 98.9347 32.8599 96.9819L32.2888 96.7693L33.2187 96.4707L34.414 96.0786L35.0037 95.8816L35.5882 95.684L36.7412 95.2868L37.8732 94.887L38.984 94.4845L40.0738 94.0794L40.6108 93.8758L41.6689 93.4667C42.7863 93.0288 43.8677 92.5862 44.9131 92.1389L45.6904 91.8025L46.6431 91.3795C47.0619 91.1909 47.4744 91.0014 47.8806 90.811L48.4854 90.5249L49.3749 90.0932L49.8118 89.8763L50.2434 89.6587L51.0908 89.2211C58.2045 85.4896 63.0378 81.436 65.6038 76.9914C71.0407 67.5745 66.2924 57.5111 52.6613 47.2517L51.5521 46.42L50.8782 45.9032L50.224 45.3904L49.5894 44.8815L48.9742 44.3765L48.6738 44.1254L48.3784 43.8754L47.8019 43.3781L47.3823 43.0077L46.9734 42.6394L46.445 42.1517L45.9358 41.6677L45.4456 41.1876L45.2076 40.9489L44.9743 40.7112L44.522 40.2385C39.1336 34.5104 37.9304 29.6068 40.3766 25.3697C41.6217 23.2132 43.7803 21.093 46.8486 19.0281L47.2212 18.7806L47.8079 18.4031C48.0731 18.2356 48.3445 18.0685 48.6219 17.9018L49.0425 17.652L49.6904 17.2784L50.3588 16.9062L50.8734 16.6279L51.3995 16.3504L52.1188 15.9817C52.666 15.7058 53.2303 15.431 53.8119 15.1575L54.3991 14.8845L55.2 14.5218L55.608 14.341L56.4394 13.9806L56.8627 13.801L57.7246 13.4431L58.1632 13.2647L59.0557 12.9092L59.5095 12.7321L60.4325 12.3791L61.3758 12.0279L61.855 11.8529L62.8288 11.5043L63.8229 11.1574L64.8373 10.8124L65.3521 10.6405L66.397 10.2982L67.4622 9.95781L68.5477 9.6193L69.6535 9.2827L70.7795 8.94806L72.2156 8.53254L73.6834 8.12016L75.4865 7.62951L76.2398 7.42969Z" fill="url(#paint0_linear_503_1140)"/>
<path d="M50 0C56.0805 0 61.9075 1.08538 67.2978 3.07296L67.8736 3.28936L67.5085 3.39989L65.7276 3.94886L65.1444 4.13326L63.9939 4.50423L62.8643 4.87809L61.7557 5.25486L60.6681 5.63457L59.6014 6.01726L59.0759 6.20972L57.7851 6.69417L56.527 7.18337L55.5441 7.57819L55.0605 7.77676L54.1089 8.17623C44.3847 12.3203 38.0116 16.9669 34.964 22.2455C29.6448 31.4586 34.4694 41.3904 48.1018 51.647L49.211 52.4787L49.8846 52.9958L50.5385 53.5092L50.858 53.7645L51.4824 54.2724L51.9379 54.6509L52.3823 55.0273L52.9579 55.5261L53.2384 55.7742L53.7848 56.2676C54.0831 56.5407 54.3723 56.8121 54.6527 57.082L55.0666 57.4855L55.6625 58.0863L56.2286 58.6816C61.594 64.4495 62.7407 69.4512 60.1912 73.8672C58.5414 76.7246 55.3917 79.5375 50.7492 82.2682L50.323 82.5162L49.6323 82.9075L48.921 83.2976C48.5202 83.514 48.1098 83.7298 47.6899 83.9451L47.0529 84.2675L46.2697 84.6533L45.466 85.0378L44.6417 85.421L44.2219 85.6121L43.3668 85.9933L42.4913 86.3731L41.5952 86.7516L41.1394 86.9402L40.2125 87.3165L39.7414 87.5041L39.2652 87.6913L38.2973 88.0646L37.3089 88.4365L36.3001 88.8068L35.2707 89.1755L34.2209 89.5426L33.6883 89.7256L32.6077 90.0903L32.0598 90.2721L30.9485 90.6343L29.8168 90.9949L28.3734 91.4432L26.898 91.8887L25.6947 92.2432L24.0154 92.7262C9.61501 83.9496 0 68.0976 0 50C0 22.3858 22.3858 0 50 0Z" fill="url(#paint1_linear_503_1140)"/>
</g>
<defs>
<linearGradient id="paint0_linear_503_1140" x1="3417.85" y1="7.42969" x2="3417.85" y2="9264.39" gradientUnits="userSpaceOnUse">
<stop stop-color="#0080FF"/>
<stop offset="1" stop-color="#00B7FF"/>
</linearGradient>
<linearGradient id="paint1_linear_503_1140" x1="3393.68" y1="0" x2="3393.68" y2="9272.62" gradientUnits="userSpaceOnUse">
<stop stop-color="#00B7FF"/>
<stop offset="1" stop-color="#0080FF"/>
</linearGradient>
<clipPath id="clip0_503_1140">
<rect width="100" height="100" fill="white"/>
</clipPath>
</defs>
</svg>
